<?xml version="1.0" encoding="utf-8"?>
<!-- Generator: Adobe Illustrator 16.0.0, SVG Export Plug-In . SVG Version: 6.00 Build 0)  -->
<!DOCTYPE svg PUBLIC "-//W3C//DTD SVG 1.1//EN" "http://www.w3.org/Graphics/SVG/1.1/DTD/svg11.dtd">
<svg version="1.1" id="Layer_1" xmlns="http://www.w3.org/2000/svg" xmlns:xlink="http://www.w3.org/1999/xlink" x="0px" y="0px"
	 width="153.327px" height="44px" viewBox="-30.093 -7.186 153.327 44" enable-background="new -30.093 -7.186 153.327 44"
	 xml:space="preserve">
<path d="M123.234,32.814c0,2.209-1.791,4-4,4H-26.093c-2.209,0-4-1.791-4-4v-36c0-2.209,1.791-4,4-4h145.327c2.209,0,4,1.791,4,4
	V32.814z"/>
<g>
	<path fill="#FFFFFF" d="M3.578,14.574c-0.033-3.711,3.039-5.518,3.18-5.602C5.017,6.436,2.32,6.089,1.372,6.062
		C-0.893,5.823-3.09,7.416-4.244,7.416c-1.177,0-2.954-1.332-4.869-1.293c-2.465,0.038-4.771,1.465-6.034,3.681
		c-2.609,4.518-0.664,11.156,1.836,14.809c1.25,1.789,2.712,3.785,4.625,3.715c1.872-0.075,2.571-1.192,4.829-1.192
		c2.238,0,2.895,1.192,4.845,1.147c2.009-0.031,3.273-1.797,4.479-3.602c1.445-2.048,2.025-4.069,2.049-4.173
		C7.47,20.492,3.618,19.021,3.578,14.574z"/>
	<path fill="#FFFFFF" d="M-0.107,3.659C0.899,2.4,1.588,0.688,1.396-1.05c-1.457,0.064-3.278,1.008-4.328,2.239
		C-3.86,2.273-4.688,4.051-4.474,5.724C-2.837,5.845-1.158,4.897-0.107,3.659z"/>
	<g>
		<path fill="#FFFFFF" d="M30.683,28.07h-2.615l-1.433-4.502h-4.979l-1.365,4.502h-2.546l4.935-15.326h3.047L30.683,28.07z
			 M26.204,21.68l-1.296-4.001c-0.136-0.409-0.395-1.372-0.772-2.888H24.09c-0.152,0.651-0.395,1.615-0.728,2.888l-1.273,4.001
			H26.204z"/>
		<path fill="#FFFFFF" d="M43.348,22.409c0,1.879-0.51,3.364-1.531,4.456c-0.915,0.971-2.052,1.455-3.406,1.455
			c-1.464,0-2.517-0.521-3.156-1.567v5.798H32.8V20.652c0-1.181-0.031-2.391-0.091-3.633h2.159l0.137,1.752h0.046
			c0.818-1.32,2.061-1.98,3.728-1.98c1.304,0,2.392,0.515,3.263,1.545C42.913,19.37,43.348,20.727,43.348,22.409z M40.847,22.499
			c0-1.075-0.241-1.963-0.728-2.661c-0.531-0.726-1.244-1.091-2.138-1.091c-0.605,0-1.156,0.202-1.648,0.603
			c-0.493,0.403-0.815,0.929-0.966,1.581c-0.075,0.304-0.114,0.552-0.114,0.747v1.846c0,0.802,0.247,1.479,0.74,2.035
			c0.493,0.551,1.133,0.83,1.92,0.83c0.925,0,1.646-0.357,2.16-1.068C40.589,24.605,40.847,23.666,40.847,22.499z"/>
		<path fill="#FFFFFF" d="M56.059,22.409c0,1.879-0.511,3.364-1.532,4.456c-0.916,0.971-2.051,1.455-3.408,1.455
			c-1.463,0-2.515-0.521-3.155-1.567v5.798h-2.455V20.652c0-1.181-0.031-2.391-0.091-3.633h2.159l0.137,1.752h0.046
			c0.817-1.32,2.061-1.98,3.729-1.98c1.302,0,2.391,0.515,3.263,1.545C55.622,19.37,56.059,20.727,56.059,22.409z M53.556,22.499
			c0-1.075-0.243-1.963-0.729-2.661c-0.531-0.726-1.242-1.091-2.136-1.091c-0.606,0-1.156,0.202-1.65,0.603
			c-0.493,0.403-0.814,0.929-0.965,1.581c-0.075,0.304-0.116,0.552-0.116,0.747v1.846c0,0.802,0.248,1.479,0.739,2.035
			c0.493,0.551,1.133,0.83,1.923,0.83c0.926,0,1.646-0.357,2.159-1.068C53.298,24.605,53.556,23.666,53.556,22.499z"/>
		<path fill="#FFFFFF" d="M70.27,23.771c0,1.305-0.456,2.364-1.362,3.185c-0.997,0.894-2.39,1.342-4.175,1.342
			c-1.65,0-2.971-0.317-3.969-0.955l0.567-2.047c1.076,0.638,2.26,0.956,3.547,0.956c0.926,0,1.646-0.209,2.159-0.626
			c0.516-0.417,0.776-0.974,0.776-1.67c0-0.623-0.215-1.146-0.637-1.57c-0.426-0.423-1.128-0.819-2.115-1.181
			c-2.684-1-4.027-2.465-4.027-4.39c0-1.258,0.475-2.287,1.421-3.092c0.947-0.804,2.201-1.205,3.764-1.205
			c1.395,0,2.556,0.243,3.479,0.727l-0.616,2.002c-0.868-0.47-1.847-0.706-2.944-0.706c-0.866,0-1.546,0.213-2.032,0.637
			c-0.408,0.378-0.616,0.84-0.616,1.388c0,0.605,0.236,1.106,0.706,1.5c0.408,0.363,1.152,0.758,2.228,1.183
			c1.319,0.531,2.289,1.151,2.909,1.863C69.958,21.825,70.27,22.712,70.27,23.771z"/>
		<path fill="#FFFFFF" d="M78.409,18.862h-2.707v5.367c0,1.363,0.477,2.045,1.432,2.045c0.439,0,0.804-0.037,1.091-0.114
			l0.068,1.864c-0.484,0.181-1.12,0.271-1.909,0.271c-0.971,0-1.728-0.297-2.275-0.889c-0.545-0.592-0.819-1.583-0.819-2.979v-5.57
			h-1.611v-1.843h1.611v-2.023l2.411-0.728v2.751h2.707L78.409,18.862L78.409,18.862z"/>
		<path fill="#FFFFFF" d="M90.596,22.454c0,1.698-0.488,3.093-1.457,4.185c-1.015,1.122-2.365,1.682-4.047,1.682
			c-1.624,0-2.915-0.537-3.878-1.612c-0.962-1.076-1.442-2.433-1.442-4.069c0-1.713,0.498-3.115,1.488-4.206
			c0.993-1.091,2.332-1.638,4.014-1.638c1.621,0,2.925,0.54,3.91,1.615C90.126,19.453,90.596,20.801,90.596,22.454z M88.048,22.51
			c0-1.012-0.219-1.88-0.655-2.606c-0.516-0.878-1.254-1.316-2.207-1.316c-0.982,0-1.74,0.438-2.252,1.316
			c-0.439,0.727-0.658,1.61-0.658,2.653c0,1.014,0.219,1.883,0.658,2.608c0.531,0.879,1.271,1.317,2.231,1.317
			c0.938,0,1.673-0.449,2.206-1.34C87.823,24.398,88.048,23.523,88.048,22.51z"/>
		<path fill="#FFFFFF" d="M98.579,19.179c-0.243-0.045-0.503-0.067-0.772-0.067c-0.865,0-1.533,0.324-2.002,0.979
			c-0.408,0.575-0.613,1.304-0.613,2.182v5.797h-2.455V20.5c0-1.271-0.024-2.434-0.071-3.479h2.138l0.09,2.114h0.069
			c0.261-0.727,0.668-1.312,1.228-1.75c0.547-0.396,1.137-0.593,1.773-0.593c0.227,0,0.432,0.017,0.615,0.045L98.579,19.179
			L98.579,19.179z"/>
		<path fill="#FFFFFF" d="M109.561,22.021c0,0.44-0.029,0.812-0.092,1.114h-7.363c0.026,1.092,0.385,1.928,1.067,2.504
			c0.621,0.514,1.425,0.771,2.408,0.771c1.091,0,2.085-0.173,2.981-0.522l0.383,1.704c-1.045,0.455-2.279,0.683-3.703,0.683
			c-1.715,0-3.059-0.504-4.037-1.51c-0.977-1.009-1.467-2.365-1.467-4.06c0-1.664,0.455-3.052,1.365-4.158
			c0.953-1.182,2.242-1.772,3.864-1.772c1.593,0,2.798,0.59,3.617,1.772C109.232,19.482,109.561,20.644,109.561,22.021z
			 M107.218,21.385c0.017-0.729-0.144-1.356-0.477-1.887c-0.427-0.685-1.079-1.025-1.956-1.025c-0.803,0-1.456,0.333-1.954,1.001
			c-0.408,0.531-0.651,1.17-0.728,1.909L107.218,21.385L107.218,21.385z"/>
	</g>
	<g>
		<g>
			<path fill="#FFFFFF" d="M20.948,7.326c-0.683,0-1.274-0.033-1.766-0.09v-7.409c0.637-0.1,1.329-0.157,2.078-0.157
				c2.816,0,4.113,1.386,4.113,3.645C25.374,5.919,23.841,7.326,20.948,7.326z M21.359,0.62c-0.38,0-0.704,0.023-0.971,0.079v5.632
				c0.145,0.023,0.423,0.034,0.815,0.034c1.844,0,2.895-1.05,2.895-3.018C24.098,1.594,23.148,0.62,21.359,0.62z"/>
			<path fill="#FFFFFF" d="M29.414,7.383c-1.587,0-2.615-1.186-2.615-2.793c0-1.677,1.05-2.872,2.706-2.872
				c1.563,0,2.615,1.128,2.615,2.784C32.12,6.198,31.036,7.383,29.414,7.383z M29.46,2.599c-0.872,0-1.431,0.815-1.431,1.956
				c0,1.119,0.57,1.934,1.419,1.934c0.849,0,1.419-0.872,1.419-1.957C30.868,3.426,30.308,2.599,29.46,2.599z"/>
			<path fill="#FFFFFF" d="M41.168,1.828L39.47,7.26h-1.106L37.66,4.9c-0.178-0.591-0.323-1.173-0.437-1.753h-0.022
				c-0.089,0.592-0.257,1.186-0.437,1.753l-0.748,2.36h-1.118l-1.599-5.431h1.24l0.615,2.582c0.145,0.615,0.267,1.196,0.369,1.744
				h0.023c0.088-0.457,0.233-1.028,0.447-1.732l0.771-2.593h0.983l0.738,2.537c0.179,0.615,0.324,1.219,0.437,1.789h0.032
				c0.078-0.559,0.201-1.151,0.369-1.789l0.66-2.537L41.168,1.828L41.168,1.828z"/>
			<path fill="#FFFFFF" d="M47.422,7.26h-1.208V4.141c0-0.96-0.368-1.442-1.095-1.442c-0.715,0-1.207,0.614-1.207,1.33v3.23h-1.207
				V3.381c0-0.48-0.011-0.995-0.045-1.554h1.062l0.057,0.838h0.033c0.325-0.58,0.983-0.948,1.722-0.948
				c1.14,0,1.889,0.872,1.889,2.291L47.422,7.26L47.422,7.26z"/>
			<path fill="#FFFFFF" d="M50.75,7.26h-1.208v-7.924h1.208V7.26z"/>
			<path fill="#FFFFFF" d="M55.15,7.383c-1.585,0-2.615-1.186-2.615-2.793c0-1.677,1.05-2.872,2.704-2.872
				c1.565,0,2.614,1.128,2.614,2.784C57.855,6.198,56.771,7.383,55.15,7.383z M55.195,2.599c-0.872,0-1.43,0.815-1.43,1.956
				c0,1.119,0.571,1.934,1.418,1.934c0.849,0,1.418-0.872,1.418-1.957C56.602,3.426,56.044,2.599,55.195,2.599z"/>
			<path fill="#FFFFFF" d="M62.612,7.26l-0.087-0.625h-0.032c-0.368,0.503-0.906,0.749-1.588,0.749
				c-0.974,0-1.664-0.682-1.664-1.599c0-1.34,1.163-2.034,3.174-2.034V3.65c0-0.715-0.378-1.073-1.127-1.073
				c-0.535,0-1.006,0.134-1.419,0.403l-0.246-0.794c0.502-0.312,1.13-0.469,1.865-0.469c1.419,0,2.135,0.749,2.135,2.247v2
				c0,0.548,0.024,0.972,0.078,1.296H62.612L62.612,7.26z M62.446,4.554c-1.34,0-2.012,0.325-2.012,1.095
				c0,0.57,0.346,0.849,0.827,0.849c0.614,0,1.185-0.469,1.185-1.106V4.554z"/>
			<path fill="#FFFFFF" d="M69.483,7.26l-0.056-0.873h-0.033c-0.347,0.659-0.929,0.996-1.743,0.996c-1.311,0-2.28-1.151-2.28-2.772
				c0-1.698,1.006-2.895,2.379-2.895c0.727,0,1.241,0.245,1.531,0.738h0.024v-3.118h1.207v6.46c0,0.525,0.012,1.017,0.046,1.463
				L69.483,7.26L69.483,7.26z M69.305,4.063c0-0.76-0.503-1.408-1.272-1.408c-0.895,0-1.442,0.793-1.442,1.91
				c0,1.095,0.568,1.845,1.418,1.845c0.759,0,1.296-0.659,1.296-1.442V4.063L69.305,4.063z"/>
			<path fill="#FFFFFF" d="M78.172,7.383c-1.585,0-2.615-1.186-2.615-2.793c0-1.677,1.05-2.872,2.705-2.872
				c1.563,0,2.614,1.128,2.614,2.784C80.878,6.198,79.794,7.383,78.172,7.383z M78.217,2.599c-0.869,0-1.429,0.815-1.429,1.956
				c0,1.119,0.571,1.934,1.419,1.934c0.85,0,1.418-0.872,1.418-1.957C79.626,3.426,79.066,2.599,78.217,2.599z"/>
			<path fill="#FFFFFF" d="M87.368,7.26H86.16V4.141c0-0.96-0.369-1.442-1.096-1.442c-0.715,0-1.205,0.614-1.205,1.33v3.23H82.65
				V3.381c0-0.48-0.01-0.995-0.045-1.554h1.062l0.057,0.838h0.033c0.324-0.58,0.983-0.949,1.721-0.949
				c1.141,0,1.89,0.871,1.89,2.291V7.26L87.368,7.26z"/>
			<path fill="#FFFFFF" d="M95.486,2.733H94.16V5.37c0,0.671,0.23,1.006,0.701,1.006c0.215,0,0.393-0.022,0.535-0.056l0.035,0.917
				c-0.234,0.09-0.548,0.135-0.937,0.135c-0.951,0-1.521-0.525-1.521-1.9V2.733h-0.793V1.828h0.793V0.833l1.186-0.358v1.352h1.326
				V2.733L95.486,2.733z"/>
			<path fill="#FFFFFF" d="M101.877,7.26h-1.206V4.164c0-0.972-0.368-1.463-1.095-1.463c-0.625,0-1.208,0.424-1.208,1.285V7.26
				h-1.206v-7.924h1.206v3.263h0.022c0.381-0.591,0.932-0.883,1.633-0.883c1.149,0,1.854,0.894,1.854,2.313V7.26L101.877,7.26z"/>
			<path fill="#FFFFFF" d="M108.422,4.834h-3.621c0.022,1.028,0.704,1.608,1.713,1.608c0.534,0,1.026-0.09,1.463-0.257l0.188,0.839
				c-0.514,0.223-1.117,0.335-1.822,0.335c-1.697,0-2.703-1.073-2.703-2.737c0-1.665,1.029-2.917,2.567-2.917
				c1.388,0,2.258,1.029,2.258,2.583C108.467,4.499,108.458,4.689,108.422,4.834z M107.316,3.974c0-0.838-0.424-1.43-1.195-1.43
				c-0.691,0-1.241,0.604-1.32,1.43H107.316z"/>
		</g>
	</g>
</g>
</svg>
