<?xml version="1.0" encoding="utf-8"?>
<!-- Generator: Adobe Illustrator 16.0.0, SVG Export Plug-In . SVG Version: 6.00 Build 0)  -->
<!DOCTYPE svg PUBLIC "-//W3C//DTD SVG 1.1//EN" "http://www.w3.org/Graphics/SVG/1.1/DTD/svg11.dtd">
<svg version="1.1" id="Layer_1" xmlns="http://www.w3.org/2000/svg" xmlns:xlink="http://www.w3.org/1999/xlink" x="0px" y="0px"
	 width="40px" height="40px" viewBox="12.125 24.625 40 40" enable-background="new 12.125 24.625 40 40" xml:space="preserve">
<g>
	<g id="XMLID_2_">
		<g>
			<path fill="#46BDE7" d="M35.875,39.076c0-0.396,0-1.746,0-3c-0.98,0-2.105,0-2.604,0c-3.68,0-3.593,2.885-3.593,3.312
				c0,0.43,0,2.354,0,2.354h-1.71v2.876h1.71v8.556h3.511v-8.556h2.352c0,0,0.225-1.378,0.333-2.89c-0.306,0-2.671,0-2.671,0
				s0-1.671,0-1.964c0-0.294,0.381-0.688,0.754-0.688C34.343,39.076,35.14,39.076,35.875,39.076z"/>
		</g>
	</g>
	<path fill="#46BDE7" d="M32.125,26.625c9.926,0,18,8.074,18,18s-8.074,18-18,18s-18-8.074-18-18S22.199,26.625,32.125,26.625
		 M32.125,24.625c-11.046,0-20,8.954-20,20s8.954,20,20,20s20-8.954,20-20S43.171,24.625,32.125,24.625L32.125,24.625z"/>
</g>
</svg>
