<?xml version="1.0" encoding="utf-8"?>
<!-- Generator: Adobe Illustrator 16.0.0, SVG Export Plug-In . SVG Version: 6.00 Build 0)  -->
<!DOCTYPE svg PUBLIC "-//W3C//DTD SVG 1.1//EN" "http://www.w3.org/Graphics/SVG/1.1/DTD/svg11.dtd">
<svg version="1.1" id="Layer_1" xmlns="http://www.w3.org/2000/svg" xmlns:xlink="http://www.w3.org/1999/xlink" x="0px" y="0px"
	 width="151.01px" height="191.627px" viewBox="0 0 151.01 191.627" enable-background="new 0 0 151.01 191.627"
	 xml:space="preserve">
<g>
	<g>
		<linearGradient id="SVGID_1_" gradientUnits="userSpaceOnUse" x1="17.4902" y1="61.0527" x2="139.5957" y2="61.0527">
			<stop  offset="0" style="stop-color:#EBBE23"/>
			<stop  offset="1" style="stop-color:#F28021"/>
		</linearGradient>
		<path fill="url(#SVGID_1_)" d="M120.233,16.494c-0.208-0.226-0.44-0.442-0.7-0.649C108.69,6.004,94.305,0,78.543,0
			C44.879,0,17.49,27.389,17.49,61.053c0,33.665,27.389,61.053,61.053,61.053c13.458,0,25.913-4.377,36.016-11.781
			c15.17-11.119,25.037-29.064,25.037-49.271C139.596,43.492,132.141,27.643,120.233,16.494z M25.49,61.053
			C25.49,31.8,49.29,8,78.543,8c8.63,0,16.784,2.072,23.993,5.744c-6.442,2.098-11.679,7.439-13.6,14.995
			c-0.909,3.572-1.516,7.221-2.2,10.579c-5.808,0.165-11.465,0.563-16.93,1.167c-0.221,0.021-0.437,0.044-0.648,0.07
			c-0.031,0.003-0.062,0.007-0.094,0.01v0.002c-0.571,0.075-1.122,0.167-1.686,0.256c-1.775,0.328-3.559,0.734-5.297,1.335
			c-0.879,0.268-1.734,0.618-2.595,0.954c-0.426,0.18-0.846,0.375-1.27,0.563c-0.425,0.185-0.843,0.387-1.255,0.604
			c-3.312,1.69-6.415,3.868-9.132,6.474c-1.366,1.295-2.618,2.71-3.794,4.181c-1.172,1.477-2.204,3.062-3.167,4.679
			c-1.904,3.255-3.322,6.782-4.281,10.411l-0.335,1.368c-0.106,0.457-0.183,0.921-0.276,1.38c-0.1,0.458-0.18,0.921-0.243,1.385
			c-0.065,0.464-0.149,0.925-0.198,1.392c-0.092,0.932-0.2,1.861-0.239,2.797c-0.009,0.137-0.016,0.274-0.023,0.411l-0.019-0.021
			c-0.031,0.656-0.047,1.317-0.047,1.98c0,5.01,0.913,9.806,2.566,14.247C30.108,85.761,25.49,73.937,25.49,61.053z M40.373,81.081
			c0.003,0.104,0.003-0.015,0.005-0.011l0.004-0.076l0.007-0.152l0.014-0.304l0.026-0.605c0.01-0.404,0.052-0.806,0.092-1.208
			c0.046-0.401,0.062-0.806,0.129-1.204l0.188-1.193c0.296-1.583,0.681-3.145,1.222-4.648c0.121-0.38,0.281-0.747,0.423-1.118
			c0.145-0.372,0.295-0.739,0.468-1.098c0.168-0.36,0.323-0.724,0.501-1.078l0.554-1.049c0.781-1.372,1.627-2.694,2.58-3.923
			c3.827-4.922,8.985-8.403,14.293-10.315c2.646-0.994,5.358-1.573,8.018-1.879l0.001-0.001c4.944-0.563,10.387-0.402,15.781-0.345
			c0.031,0.004,0.059,0.007,0.09,0.01c-2.647,14.958-5.245,29.799-7.915,44.627c-0.168,0.932-0.312,1.873-0.464,2.807l-0.011-0.002
			c-1.181,7.109-6.452,12.471-12.776,12.471c-1.472,0-2.886-0.293-4.205-0.828c-5.114-2.186-9.896-5.852-13.365-10.711
			c-0.919-1.289-1.725-2.666-2.46-4.086c-0.725-1.428-1.308-2.928-1.802-4.46c-0.491-1.534-0.825-3.118-1.074-4.716l-0.15-1.203
			c-0.055-0.405-0.058-0.781-0.092-1.173C40.381,82.877,40.396,81.933,40.373,81.081z M87.753,113.303
			c1.522-2.619,2.48-5.508,3.048-8.512c3.256-17.236,6.372-34.5,9.397-51.777c0.188-1.07,0.413-2.352,0.413-2.352
			s1.595-0.033,2.409-0.02l2.982-0.001c10.957,0,10.965-11.333,10.965-11.333l-8.951,0.074c-1.739-0.026-3.5-0.074-5.63-0.074
			c0.868-3.566,1.39-6.754,2.473-9.827c1.049-2.977,3.524-4.483,6.736-4.534c1.284-0.021,2.575,0.03,3.856,0.139
			c0.859,0.118,2.678,0.585,4.134,2.39c7.502,9.153,12.01,20.849,12.01,33.578c0,19.022-10.063,35.738-25.146,45.104
			C100.827,109.646,94.509,112.117,87.753,113.303z"/>
		<linearGradient id="SVGID_2_" gradientUnits="userSpaceOnUse" x1="90.1699" y1="68.3613" x2="92.4986" y2="47.7361">
			<stop  offset="0.1548" style="stop-color:#D46A27;stop-opacity:0"/>
			<stop  offset="1" style="stop-color:#D46A27;stop-opacity:0.9"/>
		</linearGradient>
		<polygon opacity="0.8" fill="url(#SVGID_2_)" points="100.611,50.662 84.734,50.883 81.893,66.891 97.705,66.891 100.314,52.335 
					"/>
		<linearGradient id="SVGID_3_" gradientUnits="userSpaceOnUse" x1="132.8115" y1="91.5659" x2="66.0278" y2="91.5659">
			<stop  offset="0" style="stop-color:#D46A27;stop-opacity:0"/>
			<stop  offset="1" style="stop-color:#D46A27;stop-opacity:0.5"/>
		</linearGradient>
		<path fill="url(#SVGID_3_)" d="M131.596,61.053c0,19.022-10.063,35.738-25.146,45.104c-5.622,3.49-11.94,5.961-18.696,7.146
			l-0.128,0.074c-1.816,2.725-6.844,8.91-14.813,8.461c17.614,1.49,31.645-4.109,41.747-11.514
			c15.17-11.119,25.037-29.064,25.037-49.271H131.596z"/>
		<linearGradient id="SVGID_4_" gradientUnits="userSpaceOnUse" x1="95.2178" y1="34.6553" x2="94.849" y2="39.635">
			<stop  offset="0.1548" style="stop-color:#D46A27;stop-opacity:0"/>
			<stop  offset="1" style="stop-color:#D46A27;stop-opacity:0.5"/>
		</linearGradient>
		<polygon fill="url(#SVGID_4_)" points="102.387,39.308 86.736,39.318 87.602,34.787 103.343,34.787 		"/>
	</g>
	<linearGradient id="SVGID_5_" gradientUnits="userSpaceOnUse" x1="12.5" y1="162.9902" x2="141.043" y2="162.9902">
		<stop  offset="0" style="stop-color:#EBBE23"/>
		<stop  offset="1" style="stop-color:#F28021"/>
	</linearGradient>
	<path fill="url(#SVGID_5_)" d="M23.87,140.115c-2.651-0.09-4.289,1.365-4.85,4.35l-0.725,3.875h3.563
		c2.017,0,3.221,0.99,3.221,2.648c0,1.725-1.204,2.754-3.221,2.754h-4.452l-4.924,27.348c-1.237,6.877-4.032,10.225-8.787,10.535
		l-0.158,0.002c-2.183,0-3.539-1.139-3.539-2.973c0-1.639,0.734-2.738,2.355-3.557c1.399-0.533,1.946-2.135,2.378-4.543
		l4.783-26.812H7.835c-0.971,0-1.736-0.258-2.216-0.744c-0.38-0.387-0.568-0.896-0.559-1.516c0.021-1.543,0.938-2.312,3.259-2.742
		l2.112-0.299l0.747-3.994c0.802-4.334,2.799-10.094,10.861-10.094c1.885,0,3.439,0.264,4.495,0.76
		c1.172,0.535,1.845,1.439,1.845,2.48c0,1.371-0.586,2.324-1.596,2.615c-0.399,0.094-1.089,0.051-1.832-0.016
		C24.597,140.162,24.23,140.131,23.87,140.115z M77.351,153.938c0.501-0.895,0.752-1.762,0.746-2.578
		c-0.014-1.918-1.449-3.209-3.569-3.209c-1.746,0-2.818,0.781-3.829,2.783l-11.574,22.352h-0.482l-4.272-21.43
		c-0.459-2.529-1.61-3.705-3.626-3.705c-1.204,0-2.188,0.352-2.847,1.016c-0.623,0.629-0.945,1.535-0.933,2.619
		c0.002,0.377,0.058,0.803,0.167,1.301l6.204,28.211l-0.772,1.473c-1.205,1.971-2.312,3.104-4.425,3.104
		c-0.863,0-1.559-0.154-2.231-0.305c-0.552-0.121-1.072-0.236-1.661-0.266c-0.118-0.012-0.217-0.018-0.315-0.018
		c-1.379,0-2.419,1.123-2.419,2.611c0,1.42,0.851,2.467,2.528,3.113c1.208,0.412,2.824,0.615,4.933,0.615
		c4.895,0,8.605-2.689,12.029-8.719L77.351,153.938z M85.705,177.75c-0.53,2.107-1.713,3.133-3.615,3.133
		c-1.038,0-1.876-0.342-2.423-0.992c-0.61-0.725-0.815-1.791-0.592-3.082l6.723-38.043c0.373-2.549,1.867-4.01,4.1-4.01
		c1.271,0,2.277,0.393,2.905,1.135c0.729,0.861,0.966,2.205,0.686,3.885l-2.083,11.807l0.542-0.484
		c2.483-2.223,5.54-3.348,9.083-3.348c8.596,0,14.373,6.221,14.373,15.479c0,10.281-7.098,18.035-16.508,18.035
		c-4.433,0-10.084-1.975-12.021-6.312l-0.295-0.662L85.705,177.75z M88.476,165.658c0,5.98,3.302,9.695,8.617,9.695
		c6.071,0,10.479-4.963,10.479-11.805c0-5.994-3.434-9.867-8.747-9.867C92.827,153.682,88.476,158.719,88.476,165.658z
		 M40.731,177.328c0-1.443-0.852-2.377-2.172-2.377c-0.238,0-0.458,0.006-0.667,0.014c-0.191,0.006-0.371,0.012-0.545,0.012
		c0,0,0,0,0,0c-0.317,0-0.562-0.02-0.795-0.062c-1.045-0.238-1.537-0.902-1.557-2.096c-0.014-0.652,0.11-1.418,0.286-2.428
		l5.404-30.922c0.266-1.521,0.04-2.762-0.652-3.586c-0.619-0.736-1.605-1.125-2.85-1.125c-2.355,0-3.725,1.27-4.188,3.883
		l-5.517,31.467c-0.27,1.506-0.483,2.697-0.483,4.117c0,4.418,2.666,6.85,7.508,6.85c1.79,0,3.218-0.258,4.246-0.766
		C40.085,179.693,40.731,178.719,40.731,177.328z M150.263,153.938c0.502-0.895,0.754-1.762,0.747-2.578
		c-0.014-1.918-1.448-3.209-3.57-3.209c-1.745,0-2.819,0.781-3.829,2.783l-11.574,22.352h-0.482l-4.271-21.43
		c-0.46-2.529-1.612-3.705-3.626-3.705c-1.205,0-2.19,0.352-2.848,1.016c-0.622,0.629-0.945,1.535-0.934,2.619
		c0.004,0.377,0.059,0.803,0.167,1.301l6.204,28.211l-0.772,1.473c-1.206,1.971-2.312,3.104-4.425,3.104
		c-0.861,0-1.557-0.154-2.23-0.305c-0.551-0.121-1.072-0.236-1.661-0.266c-0.117-0.012-0.217-0.018-0.314-0.018
		c-1.38,0-2.419,1.123-2.419,2.611c0,1.42,0.851,2.467,2.527,3.113c1.207,0.412,2.824,0.615,4.932,0.615
		c4.896,0,8.605-2.689,12.03-8.719L150.263,153.938z"/>
</g>
</svg>
