<?xml version="1.0" encoding="utf-8"?>
<!-- Generator: Adobe Illustrator 16.0.0, SVG Export Plug-In . SVG Version: 6.00 Build 0)  -->
<!DOCTYPE svg PUBLIC "-//W3C//DTD SVG 1.1//EN" "http://www.w3.org/Graphics/SVG/1.1/DTD/svg11.dtd">
<svg version="1.1" id="SemiBold" xmlns="http://www.w3.org/2000/svg" xmlns:xlink="http://www.w3.org/1999/xlink" x="0px" y="0px"
	 width="128.495px" height="44px" viewBox="0 0 128.495 44" enable-background="new 0 0 128.495 44" xml:space="preserve">
<path d="M128.495,37.67c0,3.903-2.868,6.33-6.769,6.33H7.066C3.164,44,0,40.834,0,36.931V7.068C0,3.165,3.164,0,7.066,0h114.66
	c3.9,0,6.769,3.165,6.769,7.068V37.67z"/>
<g>
	<g>
		<path fill="#FFFFFF" d="M83.444,29.448l-0.807,0.761c-0.186,0.104-0.371,0.223-0.557,0.307c-0.561,0.254-1.131,0.318-1.637,0.318
			c-0.539,0-1.385-0.035-2.246-0.658c-1.197-0.844-1.721-2.293-1.721-3.557c0-2.617,2.129-3.899,3.865-3.899
			c0.607,0,1.231,0.152,1.738,0.473c0.843,0.557,1.061,1.282,1.182,1.67l-3.967,1.603l-1.299,0.102
			c0.421,2.145,1.872,3.392,3.476,3.392c0.801,0,1.396-0.261,1.94-0.53C83.413,29.428,83.522,29.37,83.444,29.448z M81.052,25.182
			c0.322-0.117,0.49-0.218,0.49-0.453c0-0.674-0.764-1.452-1.673-1.452c-0.675,0-1.939,0.525-1.939,2.348
			c0,0.284,0.034,0.587,0.051,0.891L81.052,25.182z"/>
		<path fill="#FFFFFF" d="M75.151,29.317c0,0.655,0.117,0.758,0.672,0.81c0.289,0.033,0.576,0.049,0.861,0.082l-0.623,0.372h-2.975
			c0.391-0.506,0.457-0.556,0.457-0.894v-0.377l-0.006-10.031h-1.312l1.264-0.609h2.412c-0.522,0.303-0.679,0.487-0.746,1.078
			L75.151,29.317z"/>
		<path fill="#FFFFFF" d="M70.54,23.548c0.387,0.318,1.195,0.994,1.195,2.276c0,1.25-0.704,1.838-1.414,2.396
			c-0.219,0.219-0.473,0.457-0.473,0.825c0,0.373,0.254,0.575,0.438,0.727l0.609,0.471c0.742,0.626,1.417,1.199,1.417,2.364
			c0,1.587-1.536,3.188-4.438,3.188c-2.445,0-3.627-1.164-3.627-2.413c0-0.608,0.303-1.468,1.301-2.058
			c1.045-0.64,2.463-0.725,3.222-0.775c-0.237-0.306-0.507-0.626-0.507-1.148c0-0.287,0.086-0.457,0.168-0.658
			c-0.184,0.018-0.37,0.035-0.539,0.035c-1.789,0-2.801-1.334-2.801-2.65c0-0.776,0.354-1.637,1.08-2.261
			c0.963-0.792,2.109-0.929,3.021-0.929h3.477l-1.081,0.61H70.54z M69.345,31.038c-0.139-0.019-0.222-0.019-0.389-0.019
			c-0.152,0-1.064,0.033-1.771,0.271c-0.374,0.137-1.453,0.54-1.453,1.739c0,1.195,1.165,2.058,2.969,2.058
			c1.62,0,2.479-0.776,2.479-1.821C71.181,32.404,70.624,31.951,69.345,31.038z M69.829,27.832c0.391-0.389,0.424-0.928,0.424-1.232
			c0-1.214-0.723-3.104-2.125-3.104c-0.438,0-0.912,0.22-1.182,0.559c-0.285,0.352-0.37,0.808-0.37,1.246
			c0,1.13,0.659,3.004,2.108,3.004C69.107,28.305,69.562,28.1,69.829,27.832z"/>
		<path fill="#FFFFFF" d="M60.079,30.799c-2.682,0-4.117-2.088-4.117-3.979c0-2.21,1.804-4.101,4.37-4.101
			c2.48,0,4.034,1.942,4.034,3.981C64.366,28.691,62.831,30.799,60.079,30.799z M62.188,29.434c0.408-0.539,0.508-1.213,0.508-1.871
			c0-1.485-0.709-4.319-2.801-4.319c-0.557,0-1.117,0.217-1.521,0.573c-0.659,0.59-0.776,1.332-0.776,2.06
			c0,1.667,0.824,4.417,2.869,4.417C61.127,30.293,61.8,29.973,62.188,29.434z"/>
		<path fill="#FFFFFF" d="M51.1,30.799c-2.683,0-4.115-2.088-4.115-3.979c0-2.21,1.805-4.101,4.37-4.101
			c2.479,0,4.031,1.942,4.031,3.981C55.385,28.691,53.852,30.799,51.1,30.799z M53.21,29.434c0.405-0.539,0.506-1.213,0.506-1.871
			c0-1.485-0.71-4.319-2.8-4.319c-0.559,0-1.113,0.217-1.518,0.573c-0.66,0.59-0.777,1.332-0.777,2.06
			c0,1.667,0.827,4.417,2.869,4.417C52.148,30.293,52.82,29.973,53.21,29.434z"/>
		<path fill="#FFFFFF" d="M45.912,30.214l-2.262,0.518c-0.917,0.145-1.739,0.272-2.611,0.272c-4.363,0-6.025-3.213-6.025-5.726
			c0-3.07,2.355-5.916,6.389-5.916c0.854,0,1.675,0.125,2.423,0.329c1.186,0.333,1.74,0.744,2.086,0.984l-1.314,1.248l-0.554,0.124
			l0.395-0.63c-0.535-0.522-1.519-1.487-3.385-1.487c-2.496,0-4.378,1.897-4.378,4.667c0,2.974,2.15,5.773,5.597,5.773
			c1.013,0,1.535-0.204,2.008-0.395v-2.549l-2.388,0.128l1.266-0.681h3.352l-0.41,0.395c-0.111,0.095-0.125,0.127-0.157,0.252
			c-0.017,0.145-0.032,0.603-0.032,0.764V30.214z"/>
	</g>
	<g>
		<path fill="#FFFFFF" d="M88.309,29.52v4.299h-0.854V22.882h0.854v1.245c0.556-0.805,1.571-1.443,2.752-1.443
			c2.116,0,3.542,1.605,3.542,4.147c0,2.523-1.426,4.163-3.542,4.163C89.946,30.995,88.948,30.421,88.309,29.52z M93.686,26.832
			c0-1.916-0.999-3.377-2.769-3.377c-1.1,0-2.151,0.864-2.608,1.618v3.5c0.457,0.755,1.509,1.65,2.608,1.65
			C92.687,30.224,93.686,28.75,93.686,26.832z"/>
		<path fill="#FFFFFF" d="M95.769,30.799V19.863h0.853v10.936H95.769z"/>
		<path fill="#FFFFFF" d="M106.198,33.111c0.182,0.08,0.494,0.131,0.691,0.131c0.521,0,0.885-0.213,1.212-0.968l0.622-1.41
			l-3.361-7.982h0.951l2.885,6.917l2.855-6.917h0.966l-4.101,9.657c-0.426,0.995-1.095,1.474-2.015,1.474
			c-0.276,0-0.64-0.05-0.853-0.114L106.198,33.111z"/>
		<path fill="#FFFFFF" d="M103.705,30.774c-0.058-0.274-0.101-0.517-0.132-0.718c-0.025-0.202-0.041-0.408-0.041-0.617
			c-0.293,0.43-0.707,0.787-1.236,1.068c-0.529,0.283-1.033,0.422-1.725,0.422c-0.831,0-1.477-0.204-1.938-0.619
			c-0.459-0.414-0.689-0.977-0.689-1.687s0.334-1.286,1.002-1.726c0.666-0.443,1.529-0.662,2.596-0.662h1.99v-0.984
			c0-0.566-0.193-1.012-0.578-1.335c-0.387-0.323-0.93-0.487-1.635-0.487c-0.643,0-1.165,0.149-1.562,0.44
			c-0.395,0.297-0.592,0.665-0.592,1.108h-0.874l-0.019-0.042c-0.031-0.598,0.242-1.123,0.824-1.575
			c0.578-0.453,1.338-0.68,2.271-0.68c0.93,0,1.683,0.224,2.25,0.671c0.567,0.442,0.852,1.082,0.852,1.918v3.906
			c0,0.279,0.014,0.551,0.049,0.814c0.036,0.266,0.094,0.529,0.17,0.784H103.705z M100.677,30.152c0.725,0,1.246-0.162,1.778-0.482
			c0.528-0.318,0.889-0.734,1.077-1.236v-1.521h-2c-0.764,0-1.396,0.169-1.894,0.511c-0.499,0.34-0.751,0.751-0.751,1.229
			c0,0.451,0.16,0.812,0.479,1.086C99.685,30.016,100.12,30.152,100.677,30.152z"/>
	</g>
</g>
<g>
	<g>
		<path fill="#FFFFFF" d="M35.049,10.892c0-1.681,1.249-2.761,2.801-2.761c1.041,0,1.721,0.496,2.145,1.104l-0.76,0.44
			c-0.288-0.4-0.792-0.712-1.385-0.712c-1.056,0-1.841,0.8-1.841,1.929c0,1.112,0.785,1.929,1.841,1.929
			c0.544,0,1.024-0.248,1.265-0.48v-0.825h-1.601v-0.824h2.529v1.993c-0.52,0.584-1.272,0.977-2.193,0.977
			C36.298,13.661,35.049,12.565,35.049,10.892z"/>
		<path fill="#FFFFFF" d="M41.202,13.557V8.219h3.657v0.825h-2.721v1.376h2.666v0.824h-2.666v1.489h2.721v0.824H41.202z"/>
		<path fill="#FFFFFF" d="M47.45,13.557V9.043h-1.617V8.219h4.169v0.825h-1.616v4.514H47.45z"/>
		<path fill="#FFFFFF" d="M53.258,13.557V8.219h0.936v5.338H53.258z"/>
		<path fill="#FFFFFF" d="M56.802,13.557V9.043h-1.617V8.219h4.169v0.825h-1.616v4.514H56.802z"/>
		<path fill="#FFFFFF" d="M62.377,10.892c0-1.593,1.128-2.761,2.729-2.761c1.592,0,2.729,1.168,2.729,2.761
			s-1.137,2.761-2.729,2.761C63.505,13.653,62.377,12.485,62.377,10.892z M66.875,10.892c0-1.104-0.696-1.929-1.769-1.929
			c-1.08,0-1.77,0.824-1.77,1.929c0,1.096,0.689,1.929,1.77,1.929C66.179,12.821,66.875,11.988,66.875,10.892z"/>
		<path fill="#FFFFFF" d="M72.65,13.557L69.865,9.74v3.817h-0.937V8.219h0.961l2.729,3.698V8.219h0.938v5.338H72.65z"/>
	</g>
</g>
<g>
	<polygon fill="none" points="23.869,26.386 26.606,23.647 26.605,23.647 23.869,26.386 15.13,17.648 15.129,17.648 23.869,26.387 
		15.116,35.141 15.116,35.141 23.869,26.387 26.619,29.137 26.62,29.137 	"/>
	
		<linearGradient id="SVGID_1_" gradientUnits="userSpaceOnUse" x1="495.5371" y1="-489.4272" x2="483.9985" y2="-496.6486" gradientTransform="matrix(0.7071 0.7071 -0.7071 0.7071 -674.442 21.364)">
		<stop  offset="0" style="stop-color:#D6FFA1"/>
		<stop  offset="0.3264" style="stop-color:#93E2A7"/>
		<stop  offset="1" style="stop-color:#00A3B5"/>
	</linearGradient>
	<path fill="url(#SVGID_1_)" d="M26.605,23.647l-10.668-5.866c-0.303-0.166-0.582-0.204-0.808-0.134l8.739,8.738L26.605,23.647z"/>
	
		<linearGradient id="SVGID_2_" gradientUnits="userSpaceOnUse" x1="488.8262" y1="-495.5967" x2="503.7881" y2="-491.6854" gradientTransform="matrix(0.7071 0.7071 -0.7071 0.7071 -674.442 21.364)">
		<stop  offset="0" style="stop-color:#FF177B"/>
		<stop  offset="0.6721" style="stop-color:#FFA976"/>
		<stop  offset="1" style="stop-color:#FFEC73"/>
	</linearGradient>
	<path fill="url(#SVGID_2_)" d="M26.62,29.137l3.642-2.002c0.738-0.408,0.738-1.07,0-1.477l-3.655-2.011l-2.738,2.738L26.62,29.137z
		"/>
	
		<linearGradient id="SVGID_3_" gradientUnits="userSpaceOnUse" x1="497.1816" y1="-483.9497" x2="480.9585" y2="-493.4944" gradientTransform="matrix(0.7071 0.7071 -0.7071 0.7071 -674.442 21.364)">
		<stop  offset="0" style="stop-color:#63FFD4"/>
		<stop  offset="0.4854" style="stop-color:#32A0BA"/>
		<stop  offset="0.8349" style="stop-color:#1262A9"/>
		<stop  offset="1" style="stop-color:#064AA2"/>
	</linearGradient>
	<path fill="url(#SVGID_3_)" d="M15.129,17.648c-0.325,0.102-0.535,0.43-0.535,0.927l0.002,15.642c0,0.492,0.204,0.815,0.519,0.924
		l8.753-8.754L15.129,17.648z"/>
	
		<linearGradient id="SVGID_4_" gradientUnits="userSpaceOnUse" x1="503.0693" y1="-491.5288" x2="493.081" y2="-478.3697" gradientTransform="matrix(0.7071 0.7071 -0.7071 0.7071 -674.442 21.364)">
		<stop  offset="0" style="stop-color:#FF4521"/>
		<stop  offset="0.3411" style="stop-color:#D43E65"/>
		<stop  offset="0.7935" style="stop-color:#9F36B9"/>
		<stop  offset="1" style="stop-color:#8A33DB"/>
	</linearGradient>
	<path fill="url(#SVGID_4_)" d="M15.116,35.141c0.227,0.076,0.512,0.041,0.822-0.129l10.681-5.875l-2.75-2.75L15.116,35.141z"/>
</g>
</svg>
